<svg width="50" height="50" viewBox="0 0 50 50" fill="none" xmlns="http://www.w3.org/2000/svg">
<path d="M1.83337 25.4648C1.83337 14.6226 1.83337 9.20154 5.20057 5.83204C8.57237 2.46484 13.9912 2.46484 24.8334 2.46484C35.6756 2.46484 41.0967 2.46484 44.4639 5.83204C47.8334 9.20384 47.8334 14.6226 47.8334 25.4648C47.8334 36.307 47.8334 41.7281 44.4639 45.0953C41.099 48.4648 35.6756 48.4648 24.8334 48.4648C13.9912 48.4648 8.57007 48.4648 5.20057 45.0953C1.83337 41.7304 1.83337 36.307 1.83337 25.4648Z" stroke="#16F5FD" stroke-width="3"/>
<path d="M13.3334 30.0647L17.4665 25.1059C19.1041 23.1394 19.9229 22.1573 20.9993 22.1573C22.078 22.1573 22.8968 23.1394 24.5344 25.1059L25.1324 25.8235C26.77 27.79 27.5888 28.7721 28.6675 28.7721C29.7462 28.7721 30.5627 27.79 32.2003 25.8235L36.3334 20.8647" stroke="#16F5FD" stroke-width="3" stroke-linecap="round"/>
</svg>
