<svg width="13" height="10" viewBox="0 0 13 10" fill="none" xmlns="http://www.w3.org/2000/svg">
<path d="M12.147 1.29762C12.3643 1.50302 12.4911 1.7863 12.4995 2.08517C12.508 2.38404 12.3974 2.67404 12.1921 2.8914L5.80199 9.65742C5.69843 9.76688 5.57397 9.85447 5.43598 9.91502C5.29799 9.97558 5.14927 10.0079 4.99859 10.01C4.84791 10.0121 4.69835 9.98394 4.55872 9.92726C4.41909 9.87059 4.29224 9.7865 4.18566 9.67997L0.802654 6.29696C0.603463 6.08319 0.495021 5.80045 0.500176 5.50831C0.50533 5.21617 0.623678 4.93743 0.830287 4.73082C1.0369 4.52421 1.31563 4.40586 1.60778 4.40071C1.89992 4.39555 2.18266 4.50399 2.39643 4.70319L4.96 7.26525L10.5532 1.34273C10.7586 1.12546 11.0419 0.998657 11.3408 0.990198C11.6397 0.981739 11.9297 1.09232 12.147 1.29762Z" fill="#16F5FD"/>
</svg>
