<svg width="50" height="50" viewBox="0 0 50 50" fill="none" xmlns="http://www.w3.org/2000/svg">
<path d="M2.16675 25.4648C2.16675 28.4852 2.76166 31.4761 3.91752 34.2666C5.07338 37.0571 6.76754 39.5926 8.90329 41.7283C11.039 43.864 13.5745 45.5582 16.365 46.7141C19.1555 47.8699 22.1463 48.4648 25.1667 48.4648C28.1872 48.4648 31.178 47.8699 33.9685 46.7141C36.759 45.5582 39.2945 43.864 41.4302 41.7283C43.5659 39.5926 45.2601 37.0571 46.416 34.2666C47.5718 31.4761 48.1667 28.4852 48.1667 25.4648C48.1667 19.3649 45.7435 13.5147 41.4302 9.20139C37.1169 4.88805 31.2667 2.46484 25.1667 2.46484C19.0668 2.46484 13.2166 4.88805 8.90329 9.20139C4.58996 13.5147 2.16675 19.3649 2.16675 25.4648Z" stroke="#16F5FD" stroke-width="3" stroke-linecap="round" stroke-linejoin="round"/>
<path d="M25.1667 12.687V25.4648L32.8334 33.1315" stroke="#16F5FD" stroke-width="3" stroke-linecap="round" stroke-linejoin="round"/>
</svg>
