<svg width="28" height="45" viewBox="0 0 28 45" fill="none" xmlns="http://www.w3.org/2000/svg">
<path d="M14 2V42.6154M24.1538 5.69231H10.3077C8.10436 5.69231 5.99126 6.56758 4.43327 8.12557C2.87527 9.68357 2 11.7967 2 14C2 16.2033 2.87527 18.3164 4.43327 19.8744C5.99126 21.4324 8.10436 22.3077 10.3077 22.3077H17.6923C18.7833 22.3077 19.8636 22.5226 20.8715 22.9401C21.8795 23.3576 22.7953 23.9695 23.5667 24.741C24.3382 25.5124 24.9501 26.4282 25.3676 27.4362C25.7851 28.4441 26 29.5244 26 30.6154C26 31.7064 25.7851 32.7867 25.3676 33.7946C24.9501 34.8025 24.3382 35.7184 23.5667 36.4898C22.7953 37.2613 21.8795 37.8732 20.8715 38.2907C19.8636 38.7082 18.7833 38.9231 17.6923 38.9231H3.84615" stroke="#16F5FD" stroke-width="3" stroke-linecap="round" stroke-linejoin="round"/>
</svg>
