<svg width="43" height="43" viewBox="0 0 43 43" fill="none" xmlns="http://www.w3.org/2000/svg">
<path d="M37.9001 28.7816C36.6932 32.6152 34.2952 35.964 31.0546 38.3412C27.8139 40.7184 23.8996 42.0001 19.8805 42C14.8731 42 10.0708 40.0108 6.52998 36.47C2.98919 32.9293 1 28.1269 1 23.1195C0.999897 19.1004 2.28161 15.1861 4.65881 11.9454C7.03602 8.7048 10.3848 6.30678 14.2184 5.09998" stroke="#16F5FD" stroke-width="2" stroke-linecap="round"/>
<path d="M41.8218 17.2913C40.7432 13.4492 38.6946 9.94907 35.8728 7.12727C33.051 4.30547 29.5508 2.25685 25.7087 1.1783C22.3385 0.237345 19.4501 3.16065 19.4501 6.65795V20.3807C19.4501 22.1293 20.8687 23.5479 22.6173 23.5479H36.34C39.8394 23.5479 42.7627 20.6595 41.8218 17.2913Z" stroke="#16F5FD" stroke-width="2"/>
</svg>
