<svg width="41" height="41" viewBox="0 0 41 41" fill="none" xmlns="http://www.w3.org/2000/svg">
<path d="M40.9966 20.4974V20.4872C40.9966 14.4212 38.3557 8.97352 34.1621 5.22731L34.1416 5.21023C34.0898 5.15443 34.0319 5.10458 33.9691 5.06161L33.9657 5.0599C30.2409 1.7899 25.4513 -0.00915259 20.4949 3.5017e-05C15.3156 3.5017e-05 10.5874 1.92353 6.98309 5.09748L7.00529 5.07869C6.96198 5.1118 6.92194 5.14898 6.88572 5.18973C4.71901 7.1085 2.98469 9.46745 1.79761 12.107C0.610538 14.7466 -0.00219227 17.6083 5.89349e-06 20.5026C5.89349e-06 26.5669 2.63745 32.0145 6.82764 35.7624L6.84814 35.7795C6.90265 35.8408 6.96333 35.8963 7.02921 35.9452L7.03263 35.9469C10.7562 39.2125 15.5423 41.009 20.4949 41C25.4706 41.0076 30.2772 39.1945 34.0084 35.9025L33.9862 35.9213C36.1905 34.0047 37.9575 31.637 39.1676 28.9784C40.3776 26.3197 41.0025 23.4322 41 20.5111V20.4991L40.9966 20.4974ZM33.3746 33.8304C32.3588 33.0095 31.2669 32.2877 30.1137 31.6746L30.0027 31.6199C31.0498 28.6014 31.6801 25.1217 31.7399 21.5019V21.4746H39.0185C38.7737 26.1577 36.758 30.5728 33.3798 33.8253L33.3746 33.8304ZM21.4754 31.2595C23.667 31.3773 25.7151 31.8591 27.6044 32.6432L27.4814 32.5987C25.9679 36.0494 23.8378 38.4205 21.4754 38.9415V31.2595ZM21.4754 29.3052V21.4746H29.7908C29.7247 24.7173 29.1624 27.9307 28.1237 31.0032L28.1903 30.7794C26.0699 29.9065 23.814 29.4083 21.5232 29.3069L21.4771 29.3052H21.4754ZM21.4754 19.5203V11.6897C23.8279 11.5826 26.1439 11.0676 28.3201 10.1676L28.1851 10.2171C29.1332 12.9828 29.7157 16.1704 29.7908 19.4844V19.5203H21.4754ZM21.4754 9.7354V2.05678C23.8378 2.5778 25.9679 4.93861 27.4814 8.39955C25.7151 9.1341 23.667 9.61412 21.5249 9.7337L21.4754 9.7354ZM26.3506 2.90237C28.364 3.57249 30.2467 4.58496 31.9158 5.89524L31.8765 5.86449C31.1198 6.45896 30.2708 7.01927 29.3758 7.50613L29.2801 7.55396C28.5587 5.84596 27.564 4.2668 26.3352 2.87845L26.3506 2.89724V2.90237ZM19.5178 2.0619V9.7354C17.4107 9.62805 15.3376 9.16003 13.3888 8.35171L13.5118 8.39613C15.0321 4.94545 17.1588 2.57609 19.5212 2.05507L19.5178 2.0619ZM11.7148 7.54883C10.789 7.05023 9.9068 6.47481 9.07733 5.82862L9.11833 5.85936C10.7388 4.58748 12.5627 3.5987 14.5128 2.93482L14.6426 2.89553C13.4471 4.24716 12.4733 5.77968 11.7575 7.43609L11.7148 7.54883ZM19.5212 11.6879V19.5186H11.2057C11.2809 16.1687 11.8634 12.9811 12.8781 9.99164L12.8114 10.2154C14.9319 11.0841 17.186 11.5816 19.4751 11.6862L19.5212 11.6879ZM19.5212 21.4729V29.3035C17.1687 29.4105 14.8527 29.9256 12.6765 30.8256L12.8114 30.776C11.8634 28.0121 11.2809 24.8228 11.2057 21.5087V21.4729H19.5212ZM19.5212 31.2578V38.9364C17.1588 38.4154 15.0287 36.0546 13.5152 32.5936C15.2815 31.8591 17.3296 31.3808 19.4717 31.2612L19.5212 31.2578ZM14.6529 38.0908C12.6413 37.4196 10.7591 36.4098 9.08758 35.1048L9.12858 35.1355C9.8853 34.541 10.7343 33.9807 11.6294 33.4939L11.725 33.446C12.4411 35.1544 13.4356 36.732 14.6682 38.1147L14.6529 38.0976V38.0908ZM29.2818 33.4443C30.2726 33.9824 31.1215 34.541 31.9193 35.1646L31.8783 35.1338C30.2578 36.4057 28.4339 37.3945 26.4838 38.0583L26.354 38.0976C27.5493 36.7465 28.5231 35.2146 29.2391 33.5588L29.2818 33.4477V33.4443ZM39.0185 19.5203H31.7399C31.6865 15.9859 31.0766 12.482 29.9326 9.13751L30.0027 9.37325C31.2092 8.73773 32.3516 7.98717 33.4139 7.13202L33.3729 7.16277C36.7455 10.4021 38.7621 14.8013 39.0151 19.4708L39.0185 19.5203ZM7.62195 7.16447C8.60587 7.96394 9.71107 8.69678 10.8829 9.3203L10.9939 9.37496C9.9468 12.3935 9.31648 15.8732 9.25669 19.493V19.5203H1.97638C2.22116 14.8371 4.23686 10.4221 7.61512 7.1696L7.62195 7.16447ZM1.97809 21.4746H9.25669C9.31011 25.0089 9.92001 28.5128 11.064 31.8574L10.9939 31.6216C9.71107 32.3032 8.60758 33.0361 7.58266 33.8629L7.62366 33.8321C4.25111 30.5928 2.23446 26.1936 1.98151 21.5241L1.9798 21.4763L1.97809 21.4746Z" fill="#16F5FD"/>
</svg>
