<svg width="43" height="43" viewBox="0 0 43 43" fill="none" xmlns="http://www.w3.org/2000/svg">
<path d="M2.86364 42C2.37137 41.9936 1.90108 41.7952 1.55296 41.447C1.20485 41.0989 1.00644 40.6286 1 40.1364V2.86364C1 2.36937 1.19635 1.89535 1.54585 1.54585C1.89535 1.19635 2.36937 1 2.86364 1C3.3579 1 3.83193 1.19635 4.18143 1.54585C4.53093 1.89535 4.72727 2.36937 4.72727 2.86364V40.1364C4.72084 40.6286 4.52242 41.0989 4.17431 41.447C3.8262 41.7952 3.3559 41.9936 2.86364 42Z" fill="#16F5FD" stroke="#141823"/>
<path d="M40.1364 42H2.86364C2.36937 42 1.89535 41.8036 1.54585 41.4541C1.19635 41.1046 1 40.6306 1 40.1363C1 39.6421 1.19635 39.1681 1.54585 38.8186C1.89535 38.4691 2.36937 38.2727 2.86364 38.2727H40.1364C40.6306 38.2727 41.1047 38.4691 41.4542 38.8186C41.8037 39.1681 42 39.6421 42 40.1363C42 40.6306 41.8037 41.1046 41.4542 41.4541C41.1047 41.8036 40.6306 42 40.1364 42ZM26.4697 28.3333C26.2248 28.3345 25.9822 28.2867 25.7561 28.1928C25.5299 28.099 25.3248 27.9609 25.1527 27.7866L19.0152 21.6491L12.8776 27.7866C12.5243 28.1158 12.057 28.2951 11.5742 28.2865C11.0914 28.278 10.6308 28.0824 10.2893 27.741C9.94785 27.3995 9.75227 26.9389 9.74375 26.4561C9.73523 25.9733 9.91444 25.506 10.2436 25.1527L17.6982 17.6982C18.0476 17.3492 18.5213 17.1531 19.0152 17.1531C19.509 17.1531 19.9827 17.3492 20.3321 17.6982L26.4697 23.8357L35.0921 15.2133C35.4454 14.8841 35.9127 14.7049 36.3955 14.7134C36.8783 14.7219 37.3389 14.9175 37.6804 15.259C38.0218 15.6004 38.2174 16.0611 38.2259 16.5439C38.2345 17.0267 38.0553 17.494 37.7261 17.8473L27.7867 27.7866C27.6146 27.9609 27.4095 28.099 27.1833 28.1928C26.9572 28.2867 26.7146 28.3345 26.4697 28.3333Z" fill="#16F5FD" stroke="#141823"/>
<path d="M37.6515 26.0721C37.1592 26.0656 36.6889 25.8672 36.3408 25.5191C35.9927 25.171 35.7943 24.7007 35.7879 24.2084V17.1515H28.9545C28.4603 17.1515 27.9862 16.9551 27.6367 16.6056C27.2872 16.2561 27.0909 15.7821 27.0909 15.2878C27.0909 14.7936 27.2872 14.3195 27.6367 13.97C27.9862 13.6205 28.4603 13.4242 28.9545 13.4242H37.6515C38.1438 13.4306 38.614 13.629 38.9622 13.9772C39.3103 14.3253 39.5087 14.7956 39.5151 15.2878V24.2084C39.5087 24.7007 39.3103 25.171 38.9622 25.5191C38.614 25.8672 38.1438 26.0656 37.6515 26.0721Z" fill="#16F5FD" stroke="#141823"/>
</svg>
