<svg width="47" height="52" viewBox="0 0 47 52" fill="none" xmlns="http://www.w3.org/2000/svg">
<path d="M44.8021 11.3065L44.802 11.3065L24.4993 1.12076L24.4988 1.12049C24.2148 0.977587 23.9014 0.902815 23.5835 0.902105C23.2657 0.901394 22.9521 0.974722 22.6675 1.11627L44.8021 11.3065ZM44.8021 11.3065C45.1113 11.4616 45.3762 11.6925 45.5719 11.9778C45.7676 12.2629 45.8878 12.5929 45.9214 12.9371C46.0142 13.8988 48.0136 37.3302 24.5896 50.5661L24.5893 50.5663C24.2874 50.7372 23.947 50.8286 23.6002 50.8318C23.2535 50.835 22.9118 50.7501 22.607 50.5851C10.4091 43.9522 5.03773 34.5778 2.71075 26.8352C1.54591 22.9594 1.14353 19.4897 1.03444 16.9754C0.979912 15.7187 0.998714 14.7018 1.0319 13.9939C1.04849 13.64 1.06867 13.3635 1.08505 13.1729C1.09324 13.0777 1.10047 13.004 1.10581 12.953C1.10849 12.9275 1.11068 12.9077 1.11227 12.8939C1.11362 12.8822 1.11439 12.876 1.11459 12.8743C1.11464 12.8739 1.11466 12.8738 1.11464 12.874L1.11506 12.8707C1.2007 12.1978 1.61911 11.6097 2.22852 11.3014C2.22892 11.3012 2.22932 11.301 2.22973 11.3008L22.6672 1.1164L44.8021 11.3065ZM23.3075 46.2817L23.5651 46.4323L23.8199 46.2771C40.6584 36.0217 41.913 19.5675 41.9001 14.739L41.8993 14.4314L41.6243 14.2934L23.8044 5.3529L23.581 5.2408L23.3572 5.35228L5.35144 14.3233L5.0871 14.455L5.07484 14.7501C4.87545 19.5483 5.60513 35.9338 23.3075 46.2817Z" fill="#16F5FD" stroke="#00040F"/>
</svg>
