<svg width="49" height="51" viewBox="0 0 49 51" fill="none" xmlns="http://www.w3.org/2000/svg">
<path d="M19.7837 23.6265L2.90073 40.5096C2.45667 40.9531 2.1044 41.4798 1.86406 42.0596C1.62371 42.6394 1.5 43.2609 1.5 43.8885C1.5 44.5162 1.62371 45.1377 1.86406 45.7175C2.1044 46.2973 2.45667 46.824 2.90073 47.2675C3.79635 48.1629 5.01092 48.6659 6.27733 48.6659C7.54374 48.6659 8.75831 48.1629 9.65393 47.2675L26.5369 30.3797M36.8411 31.2514L46.1017 40.5119C46.997 41.4076 47.5 42.6221 47.5 43.8885C47.5 45.155 46.997 46.3695 46.1017 47.2652C45.206 48.1605 43.9915 48.6635 42.7251 48.6635C41.4586 48.6635 40.2441 48.1605 39.3485 47.2652L24.5215 32.4406M11.8628 12.3959L6.79313 14.0818L1.73062 5.64028L5.10722 2.26367L13.5511 7.32858L11.8628 12.3959ZM11.8628 12.3959L18.6208 19.1539" stroke="#16F5FD" stroke-width="3" stroke-linecap="round" stroke-linejoin="round"/>
<path d="M19.7838 23.6267C17.7683 18.4854 18.1623 11.7393 22.3174 7.58422C26.4725 3.42914 34.1379 2.51932 38.3575 5.05297L31.098 12.3124L30.4222 19.7414L37.8512 19.068L45.1107 11.8062C47.6467 16.0281 46.7345 23.6935 42.5794 27.8462C38.4243 32.0013 31.6807 32.3953 26.5394 30.3799" stroke="#16F5FD" stroke-width="3" stroke-linecap="round" stroke-linejoin="round"/>
</svg>
